<svg width="31" height="28" viewBox="0 0 31 28" fill="none" xmlns="http://www.w3.org/2000/svg">
<path d="M2.87473 23H5.63473V5.504H0.642733V8H2.87473V23ZM9.53736 27.2H12.2254L18.7534 0.343998H16.0414L9.53736 27.2Z" fill="white"/>
<path d="M23.8155 16.142C22.5015 16.628 21.6195 17.798 21.6195 19.382C21.6195 21.776 23.5635 23.324 26.2635 23.324C28.9815 23.324 30.9255 21.776 30.9255 19.382C30.9255 17.816 30.0435 16.646 28.7115 16.142C29.7735 15.62 30.5835 14.594 30.5835 13.19C30.5835 11.3 29.1615 9.644 26.2635 9.644C23.3655 9.644 21.9435 11.282 21.9435 13.19C21.9435 14.648 22.6995 15.584 23.8155 16.142ZM26.2635 15.494C24.8955 15.494 23.9235 14.648 23.9235 13.46C23.9235 12.074 24.8595 11.354 26.2635 11.354C27.7035 11.354 28.6215 12.092 28.6215 13.442C28.6215 14.63 27.6315 15.494 26.2635 15.494ZM26.2635 17.042C27.8115 17.042 28.9095 17.834 28.9095 19.31C28.9095 20.624 27.9195 21.614 26.2635 21.614C24.5895 21.614 23.5815 20.642 23.5815 19.31C23.5815 17.78 24.7515 17.042 26.2635 17.042Z" fill="white" fill-opacity="0.8"/>
</svg>
